Coordinates
version=1
nRows=12
nColumns=46
inDegrees=yes

Units are S.I. units (second, meters, Newtons, ...)
Angles are in degrees.

endheader
time	pelvis_tilt	pelvis_list	pelvis_rotation	pelvis_tx	pelvis_ty	pelvis_tz	bb_angle	bb_tx	bb_ty	bb_tz	hip_flexion_r	hip_adduction_r	hip_rotation_r	knee_angle_r	knee_angle_r_beta	ankle_angle_r	subtalar_angle_r	mtp_angle_r	crank_angle_r	hip_flexion_l	hip_adduction_l	hip_rotation_l	knee_angle_l	knee_angle_l_beta	ankle_angle_l	subtalar_angle_l	mtp_angle_l	crank_angle_l	lumbar_extension	lumbar_bending	lumbar_rotation	arm_flex_r	arm_add_r	arm_rot_r	elbow_flex_r	pro_sup_r	wrist_flex_r	wrist_dev_r	arm_flex_l	arm_add_l	arm_rot_l	elbow_flex_l	pro_sup_l	wrist_flex_l	wrist_dev_l
      7.50000000	    -12.07693795	     -6.52643739	      9.72822112	      0.15789029	      1.08944986	     -0.27033952	      0.00000000	      0.50000000	      0.00000000	      0.25000000	     81.51650413	     -5.79790002	     -0.17352562	    115.90166928	      2.02286574	    -23.22662275	    -18.72397185	      0.00000000	      0.00000000	     44.99740799	     -1.39132154	      7.00617635	     36.33459415	      0.63415830	    -12.84393106	    -19.92435166	      0.00000000	      0.00000000	    -69.76195580	      6.12935051	      0.80940533	     76.39518710	    -21.32926312	     25.66641997	     69.28762677	     49.25877825	      0.00000000	      0.00000000	     80.94755816	    -14.70044182	     28.30853776	     70.92602102	     48.11236717	      0.00000000	      0.00000000
      7.50500000	    -12.04209972	     -6.56940764	      9.74580429	      0.15790955	      1.08942891	     -0.27048630	      0.00000000	      0.50000000	      0.00000000	      0.25000000	     82.82047547	     -6.05075532	     -0.09075390	    117.00246870	      2.04207831	    -21.67719299	    -18.83123108	      0.00000000	      0.00000000	     43.84452887	     -1.86940244	      6.52547917	     35.46755071	      0.61902554	    -12.39700158	    -18.20870213	      0.00000000	      0.00000000	    -69.70140005	      6.36111689	      0.73527567	     76.68774772	    -21.37369106	     26.32201855	     69.09249504	     49.31271481	      0.00000000	      0.00000000	     80.79530438	    -14.96637594	     28.17728034	     70.87885363	     48.11319974	      0.00000000	      0.00000000
      7.51000000	    -12.08420368	     -6.55585021	      9.74751048	      0.15779183	      1.08951218	     -0.27059553	      0.00000000	      0.50000000	      0.00000000	      0.25000000	     84.15009438	     -6.28671054	     -0.00823944	    117.91582376	      2.05801936	    -20.42782323	    -18.99035656	      0.00000000	      0.00000000	     42.79745878	     -2.25892514	      6.07031718	     34.66702903	      0.60505380	    -12.13967901	    -16.64338551	      0.00000000	      0.00000000	    -69.56104012	      6.54456417	      0.63409898	     76.85008197	    -21.41822583	     26.80661127	     68.95480082	     49.35141537	      0.00000000	      0.00000000	     80.60910095	    -15.13689504	     28.09149640	     70.81528509	     48.10997599	      0.00000000	      0.00000000
      7.51500000	    -12.10466355	     -6.52948066	      9.69220193	      0.15763292	      1.08966249	     -0.27062827	      0.00000000	      0.50000000	      0.00000000	      0.25000000	     85.41108874	     -6.42005134	      0.13475678	    118.68251447	      2.07140064	    -19.28998763	    -19.23707548	      0.00000000	      0.00000000	     41.82777065	     -2.66676083	      5.58917302	     34.10486608	      0.59524220	    -11.71201501	    -15.07147436	      0.00000000	      0.00000000	    -69.51472070	      6.70171027	      0.60030577	     77.17911238	    -21.43979413	     27.40662043	     68.79541786	     49.39767145	      0.00000000	      0.00000000	     80.48028457	    -15.36090367	     27.94432793	     70.75590111	     48.10426741	      0.00000000	      0.00000000
      7.52000000	    -12.14587160	     -6.49808611	      9.68817258	      0.15736193	      1.08997624	     -0.27089428	      0.00000000	      0.50000000	      0.00000000	      0.25000000	     86.61551718	     -6.64534177	      0.25659955	    119.25669725	      2.08142202	    -18.24928809	    -19.32312454	      0.00000000	      0.00000000	     40.94959768	     -3.01920467	      5.07327588	     33.63856927	      0.58710379	    -11.39611761	    -13.60047174	      0.00000000	      0.00000000	    -69.44246843	      6.93009507	      0.52727791	     77.44264454	    -21.47219126	     27.94270399	     68.64118415	     49.43565025	      0.00000000	      0.00000000	     80.35342743	    -15.52783610	     27.81363096	     70.70973291	     48.10013745	      0.00000000	      0.00000000
      7.52500000	    -12.25344745	     -6.46402904	      9.66759789	      0.15700041	      1.09043502	     -0.27120169	      0.00000000	      0.50000000	      0.00000000	      0.25000000	     87.78379649	     -6.83959340	      0.36331182	    119.65773201	      2.08842140	    -17.25410366	    -19.74440837	      0.00000000	      0.00000000	     40.20708811	     -3.29221788	      4.73078723	     33.30803810	      0.58133493	    -11.38281040	    -12.75622875	      0.00000000	      0.00000000	    -69.36518910	      7.15255216	      0.57820909	     77.81163343	    -21.49691495	     28.08575578	     68.63320627	     49.44752959	      0.00000000	      0.00000000	     80.28278570	    -15.65906832	     27.75650701	     70.63722087	     48.08896252	      0.00000000	      0.00000000
      7.53000000	    -12.23969793	     -6.35203996	      9.58239361	      0.15673521	      1.09109295	     -0.27143385	      0.00000000	      0.50000000	      0.00000000	      0.25000000	     88.76921126	     -6.95264077	      0.60554429	    119.91604093	      2.09292974	    -16.24416504	    -19.48124308	      0.00000000	      0.00000000	     39.45822520	     -3.63774952	      4.06051420	     33.29806157	      0.58116081	    -10.63812747	    -10.90578556	      0.00000000	      0.00000000	    -69.38510753	      7.29565551	      0.44568525	     78.21964230	    -21.47049781	     28.93027825	     68.39205465	     49.49973631	      0.00000000	      0.00000000	     80.20896456	    -15.90348050	     27.52161922	     70.55325317	     48.07089025	      0.00000000	      0.00000000
      7.53500000	    -12.33314780	     -6.31101550	      9.57140779	      0.15627997	      1.09177473	     -0.27197666	      0.00000000	      0.50000000	      0.00000000	      0.25000000	     89.75156863	     -7.14263726	      0.75612290	    119.94478628	      2.09343144	    -15.38090219	    -19.45906839	      0.00000000	      0.00000000	     38.94482184	     -3.88441788	      3.65948304	     33.43567984	      0.58356270	    -10.24790395	     -9.77954959	      0.00000000	      0.00000000	    -69.34038672	      7.62543365	      0.39391449	     78.82707321	    -21.40440033	     29.71975265	     68.06706910	     49.53024597	      0.00000000	      0.00000000	     80.04913857	    -16.16355341	     27.25092269	     70.55334343	     48.06825944	      0.00000000	      0.00000000
      7.54000000	    -12.39273645	     -6.21866611	      9.56912702	      0.15579729	      1.09276699	     -0.27249223	      0.00000000	      0.50000000	      0.00000000	      0.25000000	     90.57260820	     -7.28331808	      0.91580134	    119.78868068	      2.09070688	    -14.74733304	    -19.73405201	      0.00000000	      0.00000000	     38.42422925	     -4.01223178	      3.40604979	     33.61431749	      0.58668052	    -10.27681783	     -9.46082373	      0.00000000	      0.00000000	    -69.39527969	      7.85812149	      0.46604158	     79.15482212	    -21.37995876	     29.76330510	     68.06586980	     49.53116649	      0.00000000	      0.00000000	     80.06223956	    -16.22282332	     27.19924638	     70.52454634	     48.06146488	      0.00000000	      0.00000000
      7.54500000	    -12.44644478	     -6.26706879	      9.37051539	      0.15537203	      1.09372724	     -0.27261505	      0.00000000	      0.50000000	      0.00000000	      0.25000000	     91.26484315	     -7.13309519	      0.99466369	    119.43648162	      2.08455985	    -13.80650269	    -19.34013174	      0.00000000	      0.00000000	     38.14904415	     -4.47356308	      2.93835320	     34.28846484	      0.59844661	     -9.57089615	     -8.10413391	      0.00000000	      0.00000000	    -69.43454241	      8.01378813	      0.49298711	     79.81070310	    -21.18874449	     30.59118218	     67.69534072	     49.55343328	      0.00000000	      0.00000000	     79.99759884	    -16.51084698	     26.87783458	     70.47538025	     48.04243506	      0.00000000	      0.00000000
      7.55000000	    -12.55290354	     -6.20528370	      9.23426279	      0.15477166	      1.09487967	     -0.27293537	      0.00000000	      0.50000000	      0.00000000	      0.25000000	     91.88212652	     -7.13284401	      1.14685417	    118.88355722	      2.07490950	    -13.13680225	    -19.41717218	      0.00000000	      0.00000000	     37.92946762	     -4.64125006	      2.75862068	     34.93540890	      0.60973791	     -9.45984238	     -7.92286082	      0.00000000	      0.00000000	    -69.51123432	      8.14500824	      0.58253682	     80.29857123	    -21.09337375	     30.75001652	     67.64399990	     49.55605087	      0.00000000	      0.00000000	     80.07165598	    -16.61006933	     26.75377496	     70.46017231	     48.03304169	      0.00000000	      0.00000000
      7.55500000	    -12.64544692	     -6.35497374	      9.02599111	      0.15421437	      1.09601937	     -0.27310437	      0.00000000	      0.50000000	      0.00000000	      0.25000000	     92.26799349	     -6.90378820	      1.15359535	    118.12818941	      2.06172584	    -12.08815123	    -18.87780608	      0.00000000	      0.00000000	     37.95395673	     -5.08071234	      2.61790233	     35.98420430	      0.62804284	     -8.97538511	     -7.22616221	      0.00000000	      0.00000000	    -69.54973663	      8.37158622	      0.79137193	     80.97244118	    -20.86618785	     31.51995944	     67.17302846	     49.55384730	      0.00000000	      0.00000000	     79.96999128	    -16.86344288	     26.44683425	     70.48774807	     48.02895121	      0.00000000	      0.00000000
